<?xml version="1.0" encoding="UTF-8" ?>
<!DOCTYPE svg PUBLIC "-//W3C//DTD SVG 1.1//EN" "http://www.w3.org/Graphics/SVG/1.1/DTD/svg11.dtd">
<svg viewBox="0 0 272 512"><path d="M 254.90 0.00 L 258.13 0.00 C 264.11 0.75 269.53 5.21 270.84 11.18 C 272.15 16.29 270.22 21.82 266.39 25.36 C 189.53 102.24 112.64 179.09 35.81 256.00 C 111.13 331.42 186.52 406.78 261.87 482.18 C 265.77 486.09 270.68 490.02 271.05 496.00 C 272.01 503.56 266.12 510.66 258.79 512.00 L 255.14 512.00 C 251.65 511.35 248.37 509.71 245.93 507.11 C 165.74 426.95 85.53 346.80 5.36 266.62 C 1.50 262.98 -0.23 257.22 1.32 252.09 C 2.40 247.83 5.90 244.91 8.86 241.92 C 87.88 162.91 166.88 83.89 245.90 4.89 C 248.30 2.33 251.51 0.75 254.90 0.00 Z" /></svg>
