<?xml version="1.0" encoding="UTF-8" ?>
<!DOCTYPE svg PUBLIC "-//W3C//DTD SVG 1.1//EN" "http://www.w3.org/Graphics/SVG/1.1/DTD/svg11.dtd">
<svg  viewBox="0 0 512 512"><path fill="#dd4b39" d=" M 251.52 0.00 L 260.49 0.00 C 295.37 0.82 330.16 8.44 361.86 23.12 C 417.56 48.47 463.53 94.44 488.88 150.14 C 503.54 181.84 511.21 216.62 512.00 251.51 L 512.00 260.48 C 511.13 303.07 499.63 345.42 478.37 382.36 C 459.58 415.18 433.51 443.80 402.54 465.52 C 361.26 494.80 311.06 511.03 260.49 512.00 L 251.52 512.00 C 204.78 511.06 158.38 497.23 119.03 471.94 C 91.64 454.46 67.57 431.79 48.55 405.43 C 23.54 370.99 7.27 330.20 2.08 287.93 C 0.83 278.83 0.41 269.65 0.00 260.49 L 0.00 251.51 C 0.93 204.54 14.92 157.90 40.45 118.43 C 62.81 83.56 93.67 54.17 129.66 33.65 C 166.57 12.34 208.94 0.90 251.52 0.00 M 151.65 166.66 C 130.54 177.82 113.48 196.69 104.88 219.00 C 95.88 242.22 95.55 268.67 103.92 292.11 C 111.27 312.84 125.83 330.99 144.80 342.21 C 181.85 364.57 233.05 361.41 266.21 333.24 C 281.15 320.81 289.76 302.19 293.16 283.35 C 295.00 274.01 294.24 264.46 294.42 255.00 C 294.52 251.01 293.60 247.10 292.81 243.22 C 262.46 243.14 232.11 243.25 201.76 243.16 C 201.47 253.82 201.58 264.48 201.70 275.14 C 220.87 275.28 240.04 275.17 259.22 275.19 C 259.06 283.61 254.87 291.36 249.96 297.98 C 244.54 304.83 238.27 311.23 230.55 315.47 C 209.73 327.26 182.17 325.24 163.07 310.93 C 152.85 303.20 144.65 292.60 140.50 280.42 C 133.80 261.74 135.91 240.09 146.06 223.04 C 159.62 199.97 189.17 187.67 215.03 194.96 C 224.28 197.28 232.22 202.75 240.03 207.96 C 248.47 199.39 257.30 191.19 265.38 182.29 C 256.08 175.51 246.60 168.95 236.27 163.81 C 209.40 152.74 177.55 152.96 151.65 166.66 M 356.86 212.86 C 356.70 222.46 356.89 232.07 356.76 241.67 C 347.18 241.58 337.59 241.53 328.01 241.69 C 327.99 251.23 327.99 260.77 328.01 270.31 C 337.59 270.47 347.18 270.42 356.76 270.33 C 356.89 279.93 356.70 289.54 356.86 299.14 C 366.46 299.14 376.08 299.46 385.68 298.96 C 385.69 289.41 385.30 279.84 385.88 270.31 C 395.35 270.44 404.83 270.46 414.31 270.31 C 414.45 260.77 414.45 251.23 414.31 241.69 C 404.83 241.54 395.35 241.56 385.88 241.69 C 385.30 232.16 385.69 222.59 385.68 213.04 C 376.08 212.54 366.46 212.86 356.86 212.86 Z" /><path fill="#ffffff" d=" M 151.65 166.66 C 177.55 152.96 209.40 152.74 236.27 163.81 C 246.60 168.95 256.08 175.51 265.38 182.29 C 257.30 191.19 248.47 199.39 240.03 207.96 C 232.22 202.75 224.28 197.28 215.03 194.96 C 189.17 187.67 159.62 199.97 146.06 223.04 C 135.91 240.09 133.80 261.74 140.50 280.42 C 144.65 292.60 152.85 303.20 163.07 310.93 C 182.17 325.24 209.73 327.26 230.55 315.47 C 238.27 311.23 244.54 304.83 249.96 297.98 C 254.87 291.36 259.06 283.61 259.22 275.19 C 240.04 275.17 220.87 275.28 201.70 275.14 C 201.58 264.48 201.47 253.82 201.76 243.16 C 232.11 243.25 262.46 243.14 292.81 243.22 C 293.60 247.10 294.52 251.01 294.42 255.00 C 294.24 264.46 295.00 274.01 293.16 283.35 C 289.76 302.19 281.15 320.81 266.21 333.24 C 233.05 361.41 181.85 364.57 144.80 342.21 C 125.83 330.99 111.27 312.84 103.92 292.11 C 95.55 268.67 95.88 242.22 104.88 219.00 C 113.48 196.69 130.54 177.82 151.65 166.66 Z" /><path fill="#ffffff" d=" M 356.86 212.86 C 366.46 212.86 376.08 212.54 385.68 213.04 C 385.69 222.59 385.30 232.16 385.88 241.69 C 395.35 241.56 404.83 241.54 414.31 241.69 C 414.45 251.23 414.45 260.77 414.31 270.31 C 404.83 270.46 395.35 270.44 385.88 270.31 C 385.30 279.84 385.69 289.41 385.68 298.96 C 376.08 299.46 366.46 299.14 356.86 299.14 C 356.70 289.54 356.89 279.93 356.76 270.33 C 347.18 270.42 337.59 270.47 328.01 270.31 C 327.99 260.77 327.99 251.23 328.01 241.69 C 337.59 241.53 347.18 241.58 356.76 241.67 C 356.89 232.07 356.70 222.46 356.86 212.86 Z" /></svg>
