<?xml version="1.0" encoding="UTF-8" ?>
<!DOCTYPE svg PUBLIC "-//W3C//DTD SVG 1.1//EN" "http://www.w3.org/Graphics/SVG/1.1/DTD/svg11.dtd">
<svg viewBox="0 0 512 512"><g id="#3f729bff"><path fill="#3f729b" opacity="1.00" d="M 253.36 0.00 L 259.43 0.00 C 298.68 0.63 337.82 10.11 372.70 28.17 C 427.32 55.99 471.20 104.15 493.78 161.14 C 505.57 190.39 511.54 221.85 512.00 253.36 L 512.00 259.48 C 511.34 302.20 500.05 344.76 478.88 381.90 C 460.37 414.62 434.60 443.22 403.88 464.90 C 362.05 494.82 310.95 511.28 259.56 512.00 L 252.54 512.00 C 205.43 511.32 158.54 497.54 118.83 472.11 C 90.80 454.30 66.26 431.00 47.09 403.87 C 17.18 362.04 0.72 310.95 0.00 259.56 L 0.00 253.43 C 0.44 221.91 6.42 190.41 18.22 161.14 C 43.68 96.64 96.63 43.68 161.13 18.22 C 190.38 6.43 221.86 0.45 253.36 0.00 M 158.56 112.75 C 140.17 115.63 123.82 128.51 116.54 145.63 C 113.32 152.97 111.90 161.01 111.97 169.01 C 111.98 227.33 111.95 285.64 111.99 343.96 C 111.82 359.63 118.67 375.16 130.34 385.61 C 140.52 394.93 154.27 400.12 168.06 400.02 C 227.07 400.02 286.07 400.07 345.08 399.99 C 366.31 399.98 386.68 386.49 395.15 367.06 C 398.57 359.55 400.11 351.28 400.03 343.05 C 400.02 284.72 400.05 226.39 400.02 168.07 C 400.05 158.40 397.61 148.72 392.81 140.31 C 382.89 122.33 362.48 111.05 341.99 111.96 C 284.31 111.98 226.63 111.96 168.94 111.97 C 165.47 112.00 161.99 112.17 158.56 112.75 Z" /><path fill="#3f729b" opacity="1.00" d="M 319.89 144.31 C 335.98 144.26 352.08 144.23 368.18 144.16 C 368.19 160.09 368.18 176.03 368.18 191.97 C 352.13 192.02 336.08 192.07 320.03 192.12 C 319.98 176.18 319.92 160.25 319.89 144.31 Z" /><path fill="#3f729b" opacity="1.00" d="M 246.47 208.65 C 258.97 206.64 272.60 208.33 283.18 215.68 C 293.74 222.84 300.08 234.81 302.96 246.99 C 306.18 259.93 302.40 273.91 294.65 284.52 C 285.60 296.86 270.41 304.47 255.09 304.14 C 234.88 303.91 215.71 289.56 210.11 270.09 C 205.40 256.97 208.71 242.35 215.45 230.57 C 221.61 218.93 233.48 210.67 246.47 208.65 Z" /><path fill="#3f729b" opacity="1.00" d="M 143.01 223.95 C 156.33 223.94 169.66 223.93 182.99 223.95 C 176.28 242.28 175.04 262.99 181.50 281.57 C 187.98 300.61 202.11 316.87 220.01 326.02 C 234.66 333.67 251.78 336.31 268.08 333.79 C 286.33 331.03 303.42 321.47 315.44 307.49 C 326.89 294.37 333.75 277.32 334.52 259.92 C 335.06 247.72 333.13 235.41 328.92 223.95 C 342.09 223.93 355.26 223.94 368.43 223.95 C 368.45 262.30 368.42 300.64 368.44 338.99 C 368.54 344.43 367.49 349.96 364.67 354.67 C 359.77 363.34 349.92 368.69 339.99 368.45 C 284.00 368.49 228.01 368.46 172.01 368.46 C 163.06 368.73 154.01 364.72 148.65 357.47 C 144.57 352.26 142.87 345.57 143.00 339.03 C 143.00 300.67 142.99 262.31 143.01 223.95 Z" /></g><g id="#ffffffff"><path fill="#ffffff" opacity="1.00" d="M 158.56 112.75 C 161.99 112.17 165.47 112.00 168.94 111.97 C 226.63 111.96 284.31 111.98 341.99 111.96 C 362.48 111.05 382.89 122.33 392.81 140.31 C 397.61 148.72 400.05 158.40 400.02 168.07 C 400.05 226.39 400.02 284.72 400.03 343.05 C 400.11 351.28 398.57 359.55 395.15 367.06 C 386.68 386.49 366.31 399.98 345.08 399.99 C 286.07 400.07 227.07 400.02 168.06 400.02 C 154.27 400.12 140.52 394.93 130.34 385.61 C 118.67 375.16 111.82 359.63 111.99 343.96 C 111.95 285.64 111.98 227.33 111.97 169.01 C 111.90 161.01 113.32 152.97 116.54 145.63 C 123.82 128.51 140.17 115.63 158.56 112.75 M 319.89 144.31 C 319.92 160.25 319.98 176.18 320.03 192.12 C 336.08 192.07 352.13 192.02 368.18 191.97 C 368.18 176.03 368.19 160.09 368.18 144.16 C 352.08 144.23 335.98 144.26 319.89 144.31 M 246.47 208.65 C 233.48 210.67 221.61 218.93 215.45 230.57 C 208.71 242.35 205.40 256.97 210.11 270.09 C 215.71 289.56 234.88 303.91 255.09 304.14 C 270.41 304.47 285.60 296.86 294.65 284.52 C 302.40 273.91 306.18 259.93 302.96 246.99 C 300.08 234.81 293.74 222.84 283.18 215.68 C 272.60 208.33 258.97 206.64 246.47 208.65 M 143.01 223.95 C 142.99 262.31 143.00 300.67 143.00 339.03 C 142.87 345.57 144.57 352.26 148.65 357.47 C 154.01 364.72 163.06 368.73 172.01 368.46 C 228.01 368.46 284.00 368.49 339.99 368.45 C 349.92 368.69 359.77 363.34 364.67 354.67 C 367.49 349.96 368.54 344.43 368.44 338.99 C 368.42 300.64 368.45 262.30 368.43 223.95 C 355.26 223.94 342.09 223.93 328.92 223.95 C 333.13 235.41 335.06 247.72 334.52 259.92 C 333.75 277.32 326.89 294.37 315.44 307.49 C 303.42 321.47 286.33 331.03 268.08 333.79 C 251.78 336.31 234.66 333.67 220.01 326.02 C 202.11 316.87 187.98 300.61 181.50 281.57 C 175.04 262.99 176.28 242.28 182.99 223.95 C 169.66 223.93 156.33 223.94 143.01 223.95 Z" /></g></svg>
