<?xml version="1.0" encoding="UTF-8" ?>
<!DOCTYPE svg PUBLIC "-//W3C//DTD SVG 1.1//EN" "http://www.w3.org/Graphics/SVG/1.1/DTD/svg11.dtd">
<svg  viewBox="0 0 272 512">

<path  d="M 13.73 0.00 L 16.36 0.00 C 20.07 0.45 23.57 2.14 26.14 4.87 C 105.14 83.85 184.13 162.86 263.13 241.84 C 265.93 244.68 269.20 247.41 270.44 251.35 C 272.30 256.64 270.63 262.76 266.56 266.55 C 186.41 346.74 106.23 426.91 26.07 507.08 C 23.57 509.74 20.21 511.48 16.60 512.00 L 13.96 512.00 C 9.75 511.37 5.70 509.19 3.32 505.60 C -0.61 500.04 0.22 491.87 5.11 487.17 C 82.11 410.07 159.22 333.09 236.22 256.00 C 159.39 179.09 82.49 102.24 5.64 25.35 C 2.30 22.21 0.32 17.58 0.90 12.96 C 1.47 6.28 7.20 0.89 13.73 0.00 Z" />

</svg>
