<?xml version="1.0" encoding="UTF-8" ?>
<!DOCTYPE svg PUBLIC "-//W3C//DTD SVG 1.1//EN" "http://www.w3.org/Graphics/SVG/1.1/DTD/svg11.dtd">
<svg viewBox="0 0 512 512"><path d="M 216.95 0.00 L 294.51 0.00 C 297.94 0.33 301.35 2.36 302.36 5.82 C 303.31 9.48 302.88 13.31 302.94 17.05 C 356.98 17.07 411.02 17.05 465.06 17.06 C 465.07 182.04 465.06 347.02 465.06 512.00 L 46.94 512.00 C 46.94 347.02 46.93 182.04 46.94 17.06 C 100.98 17.05 155.02 17.07 209.06 17.05 C 209.12 13.32 208.69 9.49 209.64 5.83 C 210.58 2.54 213.73 0.57 216.95 0.00 M 226.13 17.06 C 226.13 25.60 226.12 34.13 226.13 42.66 C 246.04 42.65 265.96 42.65 285.87 42.66 C 285.88 34.13 285.87 25.60 285.87 17.07 C 265.96 17.06 246.04 17.06 226.13 17.06 M 64.00 34.12 C 64.00 187.73 64.00 341.33 64.00 494.94 C 192.00 494.94 320.00 494.94 448.00 494.94 C 448.00 341.33 448.00 187.73 447.99 34.12 C 419.55 34.13 391.11 34.12 362.66 34.13 C 362.66 36.97 362.65 39.80 362.66 42.64 C 388.26 42.67 413.86 42.64 439.47 42.66 C 439.47 190.57 439.48 338.49 439.46 486.40 C 317.15 486.41 194.84 486.41 72.54 486.40 C 72.53 338.49 72.53 190.57 72.53 42.66 C 98.14 42.64 123.74 42.67 149.34 42.64 C 149.34 39.80 149.34 36.97 149.34 34.13 C 120.89 34.12 92.45 34.13 64.00 34.12 M 166.40 34.13 C 166.42 45.52 166.39 56.90 166.42 68.28 C 226.14 68.28 285.86 68.28 345.58 68.28 C 345.61 56.90 345.58 45.52 345.60 34.13 C 331.38 34.12 317.16 34.13 302.95 34.13 C 302.93 42.66 302.95 51.19 302.93 59.72 C 271.64 59.72 240.36 59.72 209.07 59.72 C 209.05 51.19 209.07 42.66 209.05 34.13 C 194.84 34.13 180.62 34.12 166.40 34.13 M 89.60 59.73 C 89.59 196.26 89.59 332.80 89.60 469.34 C 200.53 469.34 311.47 469.34 422.40 469.34 C 422.41 332.80 422.41 196.26 422.40 59.73 C 402.49 59.72 382.58 59.72 362.66 59.73 C 362.64 68.27 362.68 76.81 362.64 85.35 C 291.55 85.34 220.45 85.35 149.35 85.35 C 149.32 76.81 149.36 68.27 149.34 59.73 C 129.42 59.72 109.51 59.72 89.60 59.73 Z" /><path d="M 129.35 128.61 C 132.49 127.70 135.81 128.05 139.03 127.99 C 173.03 128.01 207.03 128.01 241.03 127.99 C 243.76 127.99 246.77 128.23 248.84 130.25 C 252.51 133.39 252.51 139.69 248.84 142.82 C 246.76 144.84 243.75 145.05 241.02 145.07 C 205.33 145.05 169.64 145.07 133.96 145.06 C 130.54 145.23 126.80 144.06 125.06 140.91 C 122.24 136.62 124.50 130.21 129.35 128.61 Z" /><path d="M 131.30 179.37 C 159.87 178.93 188.47 179.31 217.05 179.18 C 270.71 179.18 324.37 179.18 378.03 179.18 C 381.09 179.13 384.48 179.91 386.38 182.52 C 389.17 185.91 388.60 191.42 385.19 194.18 C 382.09 196.85 377.71 196.19 373.94 196.30 C 293.98 196.26 214.02 196.29 134.06 196.29 C 130.13 196.57 125.78 194.74 124.41 190.80 C 122.28 185.90 125.96 179.76 131.30 179.37 Z" /><path d="M 132.35 230.47 C 171.23 230.30 210.11 230.47 248.99 230.39 C 252.10 230.35 255.66 230.60 257.85 233.12 C 261.15 236.39 260.85 242.36 257.26 245.31 C 255.06 247.40 251.84 247.46 248.99 247.49 C 210.32 247.42 171.64 247.53 132.97 247.43 C 128.63 247.70 124.41 244.47 123.91 240.09 C 123.05 235.14 127.37 230.35 132.35 230.47 Z" /><path d="M 319.45 230.53 C 338.27 230.22 357.11 230.52 375.94 230.38 C 379.16 230.40 382.87 230.24 385.37 232.65 C 388.91 235.65 389.09 241.60 385.77 244.83 C 383.59 247.30 380.08 247.50 377.01 247.49 C 358.35 247.43 339.69 247.52 321.04 247.45 C 316.95 247.72 312.72 245.12 311.83 240.99 C 310.39 236.09 314.36 230.69 319.45 230.53 Z" /><path d="M 282.31 231.29 C 287.97 228.47 295.41 233.60 294.24 239.97 C 293.81 246.10 285.91 249.54 281.05 245.90 C 275.82 242.54 276.48 233.63 282.31 231.29 Z" /><path d="M 129.19 282.28 C 132.67 281.20 136.37 281.67 139.95 281.59 C 219.32 281.60 298.69 281.59 378.05 281.59 C 380.79 281.59 383.79 282.08 385.74 284.20 C 389.09 287.42 388.93 293.38 385.39 296.40 C 382.32 299.25 377.84 298.57 374.02 298.68 C 294.00 298.64 213.99 298.66 133.97 298.66 C 130.67 298.77 127.04 297.77 125.22 294.78 C 122.22 290.56 124.31 283.98 129.19 282.28 Z" /><path d="M 132.26 341.42 C 214.17 341.24 296.09 341.39 378.01 341.34 C 382.32 340.95 387.05 343.42 387.93 347.92 C 389.47 353.38 384.42 358.88 378.89 358.37 C 297.26 358.45 215.62 358.38 133.98 358.41 C 129.72 358.77 125.06 356.38 124.10 351.97 C 122.55 346.84 126.95 341.29 132.26 341.42 Z" /><path d="M 128.42 393.53 C 130.44 392.53 132.77 392.57 134.97 392.51 C 170.97 392.60 206.98 392.43 242.98 392.60 C 248.33 392.32 252.81 397.84 251.39 403.01 C 250.56 407.26 246.21 409.84 242.06 409.58 C 205.72 409.60 169.38 409.62 133.04 409.57 C 129.02 409.74 124.93 407.14 124.08 403.08 C 123.07 399.39 125.03 395.24 128.42 393.53 Z" /></svg>
