<?xml version="1.0" encoding="UTF-8" ?>
<!DOCTYPE svg PUBLIC "-//W3C//DTD SVG 1.1//EN" "http://www.w3.org/Graphics/SVG/1.1/DTD/svg11.dtd">
<svg width="512pt" height="512pt" viewBox="0 0 512 512" version="1.1" xmlns="http://www.w3.org/2000/svg">
<path fill="#7aa5da" opacity="1.00" d="M 253.42 0.00 L 258.48 0.00 C 298.04 0.46 337.52 9.98 372.70 28.16 C 423.95 54.30 465.83 98.29 489.38 150.79 C 503.48 181.72 510.91 215.52 511.98 249.46 C 503.19 242.15 495.66 233.47 487.40 225.59 C 471.55 209.77 455.70 193.94 439.84 178.12 C 427.09 165.66 414.89 152.62 401.75 140.58 C 400.59 139.14 399.50 137.64 398.37 136.19 C 394.08 132.47 387.90 131.47 382.70 133.77 C 295.84 167.55 209.02 201.45 122.16 235.23 C 117.99 236.98 112.81 238.08 110.51 242.41 C 107.90 246.88 109.78 253.23 114.37 255.60 C 117.71 257.28 121.40 258.03 124.95 259.12 C 144.26 264.84 163.59 270.50 182.89 276.25 C 184.64 276.45 184.87 278.32 185.44 279.66 C 192.68 302.99 200.11 326.27 207.41 349.58 C 208.43 352.84 209.28 356.17 210.78 359.26 C 211.84 361.65 214.26 362.94 216.08 364.68 L 216.28 364.87 C 224.33 374.05 233.45 382.24 241.94 391.03 C 271.60 420.69 301.26 450.36 330.93 480.02 C 335.95 485.28 341.56 489.99 345.98 495.80 C 318.02 506.10 288.36 511.66 258.56 512.00 L 254.37 512.00 C 206.87 511.70 159.51 498.00 119.41 472.49 C 94.34 456.65 72.04 436.44 53.86 413.00 C 19.58 369.27 0.48 314.09 0.00 258.55 L 0.00 254.32 C 0.32 214.72 9.75 175.17 27.84 139.91 C 50.37 95.54 86.17 58.06 129.44 33.49 C 167.00 11.94 210.15 0.49 253.42 0.00 Z" />
<path fill="#ffffff" opacity="1.00" d="M 382.70 133.77 C 387.90 131.47 394.08 132.47 398.37 136.19 C 385.54 146.75 372.63 157.22 359.76 167.73 C 355.74 170.90 352.15 174.78 347.23 176.58 C 346.00 177.19 344.79 177.81 343.61 178.49 C 295.69 208.29 247.69 237.95 199.79 267.77 C 196.71 269.42 195.49 273.02 196.50 276.30 C 202.33 301.85 208.12 327.42 213.96 352.98 C 215.02 356.81 215.61 360.74 216.08 364.68 C 214.26 362.94 211.84 361.65 210.78 359.26 C 209.28 356.17 208.43 352.84 207.41 349.58 C 200.11 326.27 192.68 302.99 185.44 279.66 C 184.87 278.32 184.64 276.45 182.89 276.25 C 163.59 270.50 144.26 264.84 124.95 259.12 C 121.40 258.03 117.71 257.28 114.37 255.60 C 109.78 253.23 107.90 246.88 110.51 242.41 C 112.81 238.08 117.99 236.98 122.16 235.23 C 209.02 201.45 295.84 167.55 382.70 133.77 Z" />
<path fill="#d1d1d1" opacity="1.00" d="M 398.37 136.19 C 399.50 137.64 400.59 139.14 401.75 140.58 C 402.72 143.68 402.95 147.01 402.26 150.20 C 387.12 222.47 372.05 294.75 356.90 367.02 C 355.98 372.41 352.16 377.22 346.88 378.88 C 342.10 380.70 336.75 379.16 332.80 376.20 C 310.08 359.57 287.44 342.84 264.69 326.25 C 254.48 336.83 244.16 347.30 233.84 357.77 C 231.12 360.43 228.65 363.71 224.91 364.95 C 222.80 365.76 220.51 365.55 218.32 365.36 C 218.77 362.29 219.25 359.22 219.48 356.13 C 220.62 337.06 222.04 318.00 223.21 298.93 C 223.22 295.85 224.52 292.92 226.96 290.99 C 267.68 255.00 308.35 218.94 349.12 183.00 C 350.36 181.86 351.88 180.05 350.77 178.30 C 350.16 176.98 348.38 177.13 347.23 176.58 C 352.15 174.78 355.74 170.90 359.76 167.73 C 372.63 157.22 385.54 146.75 398.37 136.19 Z" />
<path fill="#5786b5" opacity="1.00" d="M 401.75 140.58 C 414.89 152.62 427.09 165.66 439.84 178.12 C 455.70 193.94 471.55 209.77 487.40 225.59 C 495.66 233.47 503.19 242.15 511.98 249.46 C 511.98 249.65 511.99 250.04 512.00 250.23 L 512.00 264.75 C 510.61 304.96 499.73 344.88 480.09 380.03 C 450.98 432.87 402.57 474.82 345.98 495.80 C 341.56 489.99 335.95 485.28 330.93 480.02 C 301.26 450.36 271.60 420.69 241.94 391.03 C 233.45 382.24 224.33 374.05 216.28 364.87 C 216.79 364.99 217.81 365.24 218.32 365.36 C 220.51 365.55 222.80 365.76 224.91 364.95 C 228.65 363.71 231.12 360.43 233.84 357.77 C 244.16 347.30 254.48 336.83 264.69 326.25 C 287.44 342.84 310.08 359.57 332.80 376.20 C 336.75 379.16 342.10 380.70 346.88 378.88 C 352.16 377.22 355.98 372.41 356.90 367.02 C 372.05 294.75 387.12 222.47 402.26 150.20 C 402.95 147.01 402.72 143.68 401.75 140.58 Z" />
<path fill="#adbcc9" opacity="1.00" d="M 343.61 178.49 C 344.79 177.81 346.00 177.19 347.23 176.58 C 348.38 177.13 350.16 176.98 350.77 178.30 C 351.88 180.05 350.36 181.86 349.12 183.00 C 308.35 218.94 267.68 255.00 226.96 290.99 C 224.52 292.92 223.22 295.85 223.21 298.93 C 222.04 318.00 220.62 337.06 219.48 356.13 C 219.25 359.22 218.77 362.29 218.32 365.36 C 217.81 365.24 216.79 364.99 216.28 364.87 L 216.08 364.68 C 215.61 360.74 215.02 356.81 213.96 352.98 C 208.12 327.42 202.33 301.85 196.50 276.30 C 195.49 273.02 196.71 269.42 199.79 267.77 C 247.69 237.95 295.69 208.29 343.61 178.49 Z" />
</svg>
